# xmcd
# Track frame offsets:
# 150
# 21582
# 41717
# 64892
# 84635
# 106012
# 126162
# 149242
#
# Disc length: 2255 seconds
# Revision: 0
# Processed by: cddbd v1.4PL0 Copyright (c) Steve Scherf et al.
# Submitted via: VisiTrax 2.9.5.181 - For more info visit www.synapsa.com
#
DISCID=7708cd08
DTITLE=Shania Twain - Sing the Best of Shania Twain
DYEAR=2001
DGENRE=
TTITLE0=(If You're Not In It For Love) I'm Out Of Here (karaoke)
TTITLE1=Man Of Mine, Any (karaoke)
TTITLE2=Woman In Me, The (karaoke)
TTITLE3=Whose Bed Have Your Boots Been Under? (karaoke)
TTITLE4=(If You're Not In It For Love) I'm Out Of Here  (vocal)
TTITLE5=Man Of Mine, Any  (vocal)
TTITLE6=Woman In Me, The  (vocal)
TTITLE7=Whose Bed Have Your Boots Been Under?  (vocal)
EXTD=Performer's Choice
EXTT0=
EXTT1=
EXTT2=
EXTT3=
EXTT4=
EXTT5=
EXTT6=
EXTT7=
PLAYORDER=
